<?xml version="1.0" encoding="UTF-8" standalone="no"?>
<!-- Created with Inkscape (http://www.inkscape.org/) -->

<svg
   version="1.1"
   id="svg1886"
   width="1146.6667"
   height="594.66669"
   viewBox="0 0 1146.6667 594.66669"
   sodipodi:docname="worm2-alpha.svg"
   inkscape:version="1.2.1 (9c6d41e, 2022-07-14)"
   xmlns:inkscape="http://www.inkscape.org/namespaces/inkscape"
   xmlns:sodipodi="http://sodipodi.sourceforge.net/DTD/sodipodi-0.dtd"
   xmlns="http://www.w3.org/2000/svg"
   xmlns:svg="http://www.w3.org/2000/svg">
  <defs
     id="defs1890" />
  <sodipodi:namedview
     id="namedview1888"
     pagecolor="#ffffff"
     bordercolor="#666666"
     borderopacity="1.0"
     inkscape:showpageshadow="2"
     inkscape:pageopacity="0.0"
     inkscape:pagecheckerboard="0"
     inkscape:deskcolor="#d1d1d1"
     showgrid="false"
     inkscape:zoom="0.28949532"
     inkscape:cx="164.07864"
     inkscape:cy="385.15303"
     inkscape:window-width="1728"
     inkscape:window-height="1051"
     inkscape:window-x="152"
     inkscape:window-y="225"
     inkscape:window-maximized="0"
     inkscape:current-layer="g1892" />
  <g
     inkscape:groupmode="layer"
     inkscape:label="Image"
     id="g1892">
    <path
       style="fill:#db2d76;stroke:#db2d76;stroke-width:3.6;stroke-dasharray:none;stroke-opacity:1;fill-opacity:1"
       d="M 92.845624,545.26064 C 82.461466,492.48259 27.785512,451.10118 41.845494,393.49705 54.736499,299.93592 159.24222,245.602 246.99974,260.44621 c 66.34693,8.9864 129.05078,37.2101 186.47377,70.27359 31.14606,24.72476 61.80521,67.87713 107.06807,55.95211 44.09644,-16.70901 46.62125,-72.47391 41.59546,-112.4238 -6.97881,-51.3713 -11.48541,-108.22627 21.75314,-152.23499 45.14103,-69.748468 140.91637,-87.737933 215.0949,-58.42553 119.15359,36.057932 206.04452,135.67348 263.55992,242.01569 45.2052,27.74208 8.2589,129.83559 -40.2799,79.08933 -37.6239,-42.72176 -47.97219,-103.50045 -90.86143,-142.40362 -38.48725,-49.30885 -90.13887,-94.28768 -154.5225,-101.69139 -39.25953,-14.2133 -100.04943,-0.76996 -104.6928,47.89748 2.3172,73.26413 31.19026,151.87529 -6.78139,221.06762 -29.28277,58.48986 -95.99508,92.5134 -160.46764,86.22027 -53.43383,-0.44509 -101.68944,-28.88569 -154.78091,-32.25027 -46.37245,-14.40541 -66.05629,-76.60438 -119.26981,-75.48756 -48.79033,-17.9355 -117.86495,9.20008 -121.92,66.12153 -6.88992,29.69884 8.96746,88.13083 -36.122996,91.09397 z m 10.525546,-1.62926 c 5.66107,-29.6661 -30.404563,-3.86228 0,0 z m 9.7959,-16.79681 c -17.435349,-25.10372 -40.766951,1.25721 0,0 z m 0.31315,-8.24703 c -9.47098,-7.75383 -15.1981,-3.25224 0,0 z m 3.59185,-5.58905 c -20.842382,-6.28714 15.2486,-11.48745 -18.360804,-16.15829 -34.406423,-1.49257 9.823924,17.34085 18.360804,16.15829 z m 3.07482,-19.25508 c -21.324187,-9.18983 -4.77613,-10.58393 -16.05652,-21.51813 23.58731,-12.74341 -61.295448,-16.35312 -33.276905,5.58133 13.507705,10.41798 32.547015,14.26035 49.333425,15.9368 z M 547.6133,487.4407 c 6.98003,-10.49951 23.529,-43.73107 13.7477,-12.26228 19.59467,-17.22934 19.29966,-76.77905 7.58152,-75.67827 -0.88099,29.98378 -6.49764,61.57374 -21.32922,87.94055 z m -26.60913,-8 c 4.76893,-21.4014 16.16451,-20.93796 5.29548,-0.11149 18.60883,-11.28259 32.36478,-80.41795 4.87705,-63.3433 -7.59063,14.41794 -13.36985,56.06349 -18.23544,62.44794 12.46833,-29.22295 5.11593,-8.03019 2.49985,9.88975 2.1443,-2.7761 3.77772,-5.87631 5.56306,-8.8829 z m 13.47808,3.70048 c 1.05635,-9.54837 20.59017,-33.0782 10.01816,-8.5692 3.11109,-17.33057 16.21251,-19.51901 4.94709,0.16188 14.5988,-14.06474 22.37152,-76.39985 3.67148,-67.6595 -4.09423,25.83646 -12.39956,50.72355 -18.63673,76.06682 z m 4.26495,2.29952 c 5.42764,-13.73732 -17.22719,22.35309 0,0 z m 23.60704,0.66667 c 4.28591,-13.40627 26.47214,-45.87845 10.41948,-14.15119 2.01492,20.85698 26.03862,-38.52242 18.00823,-51.78743 0.90891,-17.42647 -23.94129,-42.83552 -10.45615,-11.59376 3.26578,27.19801 -10.02914,52.35894 -17.97156,77.53238 z m -6.35419,-1.61419 c 2.74685,-10.24931 -13.71221,19.92049 0,0 z M 508.94177,470.4017 c 10.02377,-17.51504 28.69885,-59.51183 13.07942,-65.59478 -10.72124,17.08469 -33.53749,63.80121 -29.27887,66.43789 12.95855,-17.70486 -5.0152,22.30278 10.71337,-6.02377 8.01037,-0.90653 -13.46769,38.12952 2.93378,9.48154 z m 72.13424,12.36323 c 3.16866,-13.35054 21.56202,-41.98305 9.88843,-11.93153 21.36555,-11.60547 14.64078,-78.51083 2.13399,-69.95256 5.92071,25.12749 -11.42885,80.62165 -12.02242,81.88409 z m 16.15559,-1.9909 c 7.07108,-36.61528 7.34483,-16.55585 8.64564,-10.9348 6.71584,-33.16543 12.27692,-13.75552 9.37078,-7.94134 15.51149,-23.58604 -11.11038,-82.67567 -19.34379,-74.72888 20.09164,27.86767 5.37012,63.26008 1.32737,93.60502 z m -474.41804,0.46378 c -6.92265,-13.59082 -9.1477,3.94253 0,0 z m 348.52046,-6.321 c 0.18937,-12.39545 25.69605,-27.4028 10.74344,-5.13626 25.29353,-11.61706 38.3924,-91.0367 17.69205,-66.39336 0.10416,-15.63384 -18.34045,33.00925 -25.67652,45.00028 -14.16708,26.51581 17.46225,-14.55382 -1.07718,17.73705 -0.38214,2.28137 -9.59733,16.73954 -1.68179,8.79229 z m -21.78849,-5.25422 c 1.76445,-18.15752 25.56732,-27.49617 9.37321,-4.60463 13.13922,-18.29601 41.96761,-52.61927 25.25889,-71.51947 -9.6368,26.39227 0.70624,-23.15457 -8.87104,4.80377 -5.98629,12.94313 -30.10078,56.1136 -13.13237,43.53181 0.59068,3.97998 -25.79045,35.94953 -12.62869,27.78852 z m -8.67714,1.35607 c -0.68143,-7.63984 -5.35284,9.37374 0,0 z M 625.4996,459.77403 c 19.29303,-29.11843 -15.18696,-90.11793 -24.95534,-84.80947 19.00538,21.38459 22.99901,76.3752 23.83935,87.90995 l 0.79747,-2.21555 z m -504.29679,8.33334 c -16.7429,-4.092 -16.2712,-19.77769 0.99028,-5.58711 -14.221,-5.12544 -20.02292,-20.09078 -0.3895,-6.83665 -18.16335,-11.92211 -12.28405,-17.09555 -10.36577,-13.71814 -6.88394,-12.43884 -76.776895,-28.9955 -45.715179,-11.0982 -31.190022,5.2913 26.979549,5.18034 -9.134078,10.07629 -12.285191,6.05461 31.700246,2.75555 0.706639,7.01722 5.528174,10.16922 49.229718,6.50604 63.907608,20.14659 z m 276.85611,-8.33334 c 19.40949,-23.97936 57.43953,-82.89978 53.76345,-94.33746 0.94622,-10.61668 -16.99569,3.95041 -2.87578,-14.5964 -17.24493,11.70038 -24.01214,23.08592 -8.90593,-2.30447 -9.41164,-5.42255 -6.47814,-8.94926 -12.45041,-4.32706 -10.02393,8.66412 1.32816,-18.74876 -8.79121,-0.38957 16.72861,-27.66493 -38.23059,20.68376 -7.25053,-11.5592 15.75613,-20.74097 -34.43584,4.98315 -10.8564,-13.94069 -6.03233,12.09948 -21.17433,8.1856 -6.31669,-1.4277 -33.19094,24.17088 -67.3389,67.48803 -63.8927,104.24181 11.73324,-12.88961 2.03036,-7.21058 7.24203,4.60411 10.86624,-8.33056 35.08604,-46.38498 13.21561,-13.54463 -8.73811,8.11178 -8.71157,29.76295 2.06971,8.24793 -21.0629,24.59684 9.09931,13.24486 -0.89479,21.6847 8.02681,2.03234 22.00079,-21.48669 8.77468,5.00321 14.97804,21.12744 31.66655,-0.90623 33.7325,-15.00736 -4.53733,14.2933 -8.42702,26.41146 1.92546,24.4639 -5.95917,15.25918 -0.84088,6.18835 1.511,3.18888 z M 632.76979,440.4407 c 13.64816,-13.34473 7.50669,-50.89009 -13.42563,-70.14588 -22.48565,-19.68618 -16.90334,-8.12197 -2.42044,10.656 13.78325,6.28036 21.54124,120.5773 14.11059,74.18574 l 1.2583,-8.55327 z M 72.146895,457.63298 c -5.559157,-6.76529 -6.439714,6.79247 0,0 z m 373.441315,-5.56934 c 8.76901,-15.79259 37.66111,-58.023 17.78048,-64.88285 -15.8598,15.70396 -34.16728,49.80696 -20.8782,59.39602 -2.7859,0.98789 -2.75877,19.08587 3.09772,5.48683 z m 190.30119,1.00844 c -4.24708,1.31117 0.1867,5.35415 0,0 z m 8.84603,-6.68373 c -4.77343,-11.85975 5.4171,-33.98346 3.86534,-7.61432 16.11634,-21.32342 -22.60746,-70.44677 -22.59292,-68.82334 19.23411,20.89844 9.61746,51.81562 18.72758,76.43766 z m -214.72232,-7.28099 c -7.3865,2.68344 -0.5184,11.45098 0,0 z m -311.12727,0.74362 c -32.426681,-20.58978 22.71347,7.77499 -4.59066,-10.20502 -10.97762,-18.05686 25.39956,17.55364 1.79232,-7.18332 -3.20438,-21.9506 -39.470604,-36.92449 -54.393391,-29.47793 24.32358,9.58579 -31.086535,-3.39968 1.232594,12.10449 -25.740395,-2.87815 10.252765,4.8103 -7.737643,8.69042 20.060449,11.32252 43.691544,14.77463 63.69678,26.07136 z m 540.8364,-9.42068 c -9.79534,-24.86753 14.10306,13.18885 4.92939,-15.8596 1.23564,-23.72615 -52.58593,-76.20999 -24.28103,-30.41409 7.25312,15.08609 10.83161,31.79429 19.35164,46.27369 z m -234.24201,3.34373 c -2.07615,-5.32967 -2.40024,5.88468 0,0 z M 126.26256,419.04299 c -7.48741,-1.82763 -14.32929,-26.78529 -0.1583,-9.29717 -22.57681,-30.41127 27.49562,27.00601 -0.66855,-11.83658 -6.91848,-19.24891 15.33467,13.51741 2.48971,-8.92847 -7.53448,-24.98023 -75.414444,-36.91555 -59.490195,-19.26511 23.995951,6.18788 -33.342104,-2.22207 2.095545,8.68175 -23.568026,7.17969 40.27981,15.7845 46.70258,30.637 3.27918,3.08069 6.26584,6.46171 9.02921,10.00858 z m 311.83718,3.73104 c 10.61466,-13.7618 27.53622,-55.57952 2.41535,-20.23343 -2.23262,3.43622 -19.27174,33.25914 -2.41535,20.23343 z m 233.20499,-6.03173 c -13.21086,-23.37104 15.89402,-3.99249 -0.69432,-30.81606 -3.26364,-18.95884 -58.48472,-52.81387 -28.30296,-17.54585 11.79596,14.69079 22.30531,30.65542 28.99728,48.36191 z m 5.22851,-0.3016 c -2.60459,-10.10572 -1.31727,9.26102 0,0 z m -547.11413,-1.44754 c -5.77126,-9.04854 1.39763,9.56751 0,0 z m 12.06111,-7.7504 c -9.11235,-10.54979 -0.9727,-23.93973 4.68865,-6.50084 -5.81328,-28.89641 -5.79231,-52.68572 -44.67122,-63.92652 -6.537275,-2.66297 -41.632054,-3.70947 -21.534918,3.95406 -19.557423,2.5919 4.130052,3.78864 -1.422802,13.20277 24.65567,13.37665 63.35536,17.35435 62.94029,53.27053 z m 164.91082,-7.05206 c -3.82349,2.32078 5.78819,5.22778 0,0 z m 375.13865,-0.75 c 7.23365,-39.07055 -58.20286,-69.7972 -68.54553,-66.62332 29.72401,13.03074 54.61385,37.3365 68.54553,66.62332 z m -365.40321,-5.85955 c -1.12693,-25.108 36.42767,-68.56117 24.57758,-77.09535 -14.24867,23.26832 -21.29804,50.21538 -24.57758,77.09535 z m 769.21272,1.65793 c 1.7834,-23.66185 -27.4657,12.75684 0,0 z m -932.07354,-4.46505 c -8.14955,-15.06837 -1.33221,-31.04069 3.22454,-6.54328 10.23207,-37.20922 -35.8436,-81.22986 -71.36814,-60.27066 33.04798,10.48231 64.03852,26.94827 68.1436,66.81394 z m 142.9637,-26.33334 c -12.45176,-28.38898 20.90626,-66.55484 1.53909,-78.14054 -10.63379,27.96215 -10.1179,74.28851 -0.54076,94.60578 -0.24641,-5.49371 -0.62167,-10.97929 -0.99833,-16.46524 z m -9.50952,25.00001 c 0.0595,-29.6106 -4.60839,16.5656 0,0 z m 4.34678,1 c -2.56722,-16.81292 -0.97332,16.30897 0,0 z m 792.41358,-8.86439 c 21.2944,-5.9334 -13.9073,-7.38048 5.4236,-13.14029 -24.2359,-5.37075 -38.2328,40.09035 -8.7041,13.59485 l 2.3324,-0.32319 z m -806.09369,6.53105 c 4.576,-18.24777 -7.24487,4.55371 0,0 z M 164.72848,362.44457 c 2.01608,4.07833 10.48085,30.64079 6.22962,2.25847 5.79803,-38.27598 -41.13306,-68.90159 -70.14223,-56.1934 32.33463,-2.08227 67.50696,60.45414 63.88823,59.99611 -0.075,-2.01929 0.0409,-4.04108 0.0244,-6.06118 z m 107.00419,18.32946 c -3.70123,4.11184 5.70081,6.93349 0,0 z m 414.49188,-1.01985 c 6.07156,-29.20032 -60.8954,-61.65374 -67.51488,-52.83207 27.25056,10.22856 49.68811,30.26064 67.51488,52.83207 z m -354.76905,0.2847 c 2.28678,-15.82299 -8.44827,24.61043 0,0 z M 175.93109,362.10736 c 0.40157,-30.52269 15.37439,35.49293 10.38693,-6.87731 -3.23873,-25.43912 -19.6786,-60.32509 -45.63083,-65.39205 23.55782,20.63338 -31.61975,-15.95252 -2.68829,8.52432 -29.39935,-10.33059 34.13996,18.68484 30.06736,38.8201 8.60788,5.74181 7.68467,58.4587 7.86483,24.92494 z m 5.38279,14 c -0.42132,-27.1886 -2.5265,29.58164 0,0 z m 83.41277,-1 c 4.0365,-26.92191 -7.50743,29.99668 0,0 z m 796.64645,2.02418 c 1.7552,-8.34976 38.6588,-13.77199 16.504,-14.86547 27.4718,-7.96785 -18.3679,-16.2201 -28.0773,9.63348 26.1998,-5.10566 -9.1893,21.22584 11.5733,5.23199 z m -807.00983,1.64249 c -3.53444,3.34644 5.16689,4.40826 0,0 z m 55.74981,-28.76971 c 5.61775,-30.50276 13.5168,-49.97279 7.14952,-45.99016 -8.36152,-19.64057 -18.23892,40.85272 -14.63068,55.04543 0.32986,24.90653 7.24147,13.71863 6.60942,-2.71588 z m 263.36716,32.51507 c -1.39589,-5.83869 -4.21851,3.66531 0,0 z m -366.15845,-9.30031 c -3.83328,-20.4758 3.32712,-34.95703 3.8256,-4.37024 0.15187,-32.97293 -3.96741,-72.41666 -29.29826,-96.46607 -18.29243,7.89834 26.05871,49.30682 16.65398,79.05002 2.53553,33.88537 1.90155,3.10416 4.37969,-6.61503 1.26488,3.24058 0.2121,50.97424 4.43899,28.40132 z m 35.19298,-19.77839 c -1.30205,-19.22465 11.19177,9.65803 5.84744,-19.25722 4.56354,-19.37141 -31.17068,-89.31452 -14.23264,-37.12273 5.85299,13.52045 5.39932,89.99531 8.21309,60.38029 l 0.10121,-2.35253 z m 8.89592,20 c 5.14854,-20.9628 2.57615,-23.40975 0,0 z m 330.31399,4.04445 c -5.66889,-0.26624 6.7746,6.07663 0,0 z M 194.39104,376.1907 c -3.82351,2.32076 5.78821,5.22777 0,0 z m 51.7074,-7.10129 c 0.51339,-21.36927 -4.76893,31.25284 0,0 z m 445.32485,7.44342 c 1.32254,-7.82554 -4.86995,4.11561 0,0 z m -467.9782,-15.09214 c 0.7776,-25.43991 3.59322,-83.15251 -24.53902,-84.98127 0.99992,19.79528 19.88268,71.58611 18.40708,71.47874 2.57696,-29.11169 7.60615,45.66119 6.13194,13.50253 z m 9.23023,-10 c 5.3038,-16.2578 1.39822,-68.85126 -11.67287,-61.75798 2.06347,15.51274 12.47594,84.23846 11.89129,71.50883 0.026,-3.25083 -0.16223,-6.50064 -0.21842,-9.75085 z m 40.38239,22.08334 c -3.82353,2.32076 5.7882,5.2278 0,0 z m 12.42252,-1.08334 c -2.60464,-10.10565 -1.31721,9.26106 0,0 z m 30.25732,-2.30796 c -3.95747,4.03918 6.41807,6.76187 0,0 z M 190.54297,356.47877 c 7.56414,-29.10636 -9.7742,-72.72647 -33.86768,-79.20435 12.03773,13.94668 7.2998,12.26167 -5.18924,5.02487 24.56824,21.87618 35.63598,50.99137 39.04274,83.02341 z m 150.88307,7.62859 c 13.54643,-15.81446 22.5329,-45.55675 29.78046,-44.95931 -3.34137,1.77052 -16.82482,7.62833 -4.17475,-7.63639 -8.23163,14.7821 -30.33722,41.71989 -25.60571,52.5957 z m 353.38753,4.92131 c -13.34468,-13.62926 -18.27732,-26.71907 -7.55608,-20.78377 -8.98681,-20.89083 -68.6694,-39.84103 -66.75522,-29.38855 29.21802,8.48533 54.82861,27.07096 74.3113,50.17232 z m 364.79603,-13.70995 c 15.3872,-2.01516 45.6852,-14.31636 18.811,-18.74107 8.8563,-4.14177 -50.2133,7.15777 -37.2637,25.30683 7.5306,-2.54211 6.1863,3.62149 18.4527,-6.56576 z M 285.87235,327.77403 c 5.01794,-13.59804 -0.28385,-65.59717 -6.63518,-25.96823 -1.79619,22.34457 7.322,79.34803 6.63518,25.96823 z m 298.27455,40.14265 c -1.79998,-5.77451 -4.51159,3.13398 0,0 z m 98.66667,-2.80932 c -7.93003,-5.39252 5.28943,8.79771 0,0 z M 226.717,351.91697 c -4.50609,14.22806 5.82081,11.12839 0,0 z m -46.96247,5.52372 c -3.7476,4.67781 5.77019,9.86037 0,0 z m 138.78333,2.66667 c 8.38507,-20.7713 18.94335,-51.37266 11.72346,-56.40722 3.3925,-23.97323 -20.13129,38.23028 -11.72346,56.40722 z m -59.48557,-13.51912 c -1.06531,-22.41339 -13.94638,-59.57632 -20.40817,-70.44642 10.11674,17.23372 6.33645,73.41896 20.40817,70.44642 z m 17.77752,-0.81421 c -3.97993,-20.38588 6.58547,-75.35991 -14.34164,-66.30303 5.55759,15.17492 8.46843,72.13615 14.34164,66.30303 z m 62.3525,9.06644 c 11.16701,-18.805 34.41813,-73.34627 6.88963,-27.57498 -1.02209,4.68917 -18.72266,28.36327 -6.88963,27.57498 z m 355.18097,1.26689 c -3.53444,3.34644 5.16689,4.40826 0,0 z m 341.79452,-5.68251 c 13.4401,-14.71338 55.119,-23.55038 37.1123,-33.19649 -26.3447,-3.47225 -58.3743,23.99074 -37.8525,21.30203 -7.1131,4.93529 -5.4219,23.66625 0.7402,11.89446 z m -338.67756,-0.54717 c -9.20161,-6.90827 -24.43842,-29.97848 -2.43205,-11.98486 -18.76757,-29.10527 -68.47555,-41.37067 -92.56334,-28.23594 36.77269,0.10966 68.51487,15.40771 94.99539,40.2208 z M 267.63349,337.44069 c 4.37261,-22.36691 -22.11399,-84.42423 -9.48364,-31.083 3.21762,5.90769 1.16354,36.19767 9.48364,31.083 z m 331.84675,5.66667 c -5.14575,-8.90784 -5.53834,4.50971 0,0 z M 1025.831,331.82335 c 13.9021,-17.84054 56.1241,-16.08495 37.0616,-27.97646 -5.9929,-8.97748 -60.997,25.82456 -34.805,17.69442 -3.8058,2.90166 -15.482,17.96936 -2.2566,10.28204 z m -328.56063,-6.34886 c -9.21447,-2.40156 -22.90654,-18.86571 -3.63918,-11.59561 -10.74908,-19.31651 -72.91514,-28.29152 -66.98363,-12.63597 25.03644,2.61715 48.37571,13.04232 70.62281,24.23158 z m 393.54323,4.29954 c -2.4001,-5.88477 -2.0763,5.32959 0,0 z m -68,-15.36375 c 12.1201,-5.68581 61.0518,-23.35359 23.2506,-22.8121 27.786,-19.10615 -58.22495,10.47864 -30.417,15.75136 -9.9487,11.63731 -5.7566,16.54716 7.1664,7.06074 z m -321.33336,-0.52189 c -10.36126,-10.91273 -24.41174,-13.38788 0,0 z m -362.66668,-7.17672 c 12.60178,-14.07372 1.06756,-12.24052 0,0 z m 7.31662,-0.91115 c 13.14366,-22.33023 -13.33121,16.46709 0,0 z m 354.22247,-0.35983 c -19.78083,-27.75893 -87.4177,-28.11486 -92.3248,-15.56789 31.532,-3.11485 62.79116,5.38643 92.3248,15.56789 z m -102.53908,-0.5497 c -4.40826,-5.16689 -3.34644,3.53444 0,0 z m 425.66663,-15.19721 c 18.4611,2.16168 45.2133,-23.39632 11.8519,-11.56708 38.5846,-24.99043 -48.35232,12.0474 -23.2437,10.37133 -13.04819,18.04678 3.1772,10.29953 11.3918,1.19575 z m -419.99996,6.53375 c 16.0153,-10.55859 -28.85993,11.70463 0,0 z m -286.06762,-7.12017 c 2.51428,-11.23986 -12.67494,21.88161 0,0 z m 277.40095,4.46424 c -6.795,-2.62176 -4.17074,7.35254 0,0 z m 104,2.15937 c -30.7994,-12.32874 21.15608,0.24337 -10.48725,-15.8802 -16.72891,-18.93551 -98.87823,-3.49318 -41.37026,-1.81722 18.02508,3.53301 34.49678,12.03968 51.85751,17.69742 z m -97.22599,-8.80501 c 27.42992,-12.85087 -30.20276,9.74211 0,0 z m 398.27292,1.90865 c 22.4301,-10.43481 46.6716,-27.85345 27.0452,-38.71431 15.8243,-18.22089 -54.34335,31.3611 -21.4855,15.72645 -21.23114,22.09085 5.8426,5.01432 -3.3696,11.29713 -1.5066,1.14531 -15.41787,17.61505 -2.1901,11.69073 z m -302.38283,-6.72725 c -9.7068,-2.48877 -26.89209,-20.46511 -5.47198,-9.85843 -23.68805,-20.23747 -87.08634,-13.55232 -90.5692,-3.41077 13.81396,-4.58178 -21.12195,16.0912 7.42165,2.89432 29.20991,-9.02768 62.53949,-6.0806 88.61953,10.37488 z M 217.64568,272.08513 c -4.93814,0.31321 8.78411,6.52176 0,0 z m 776.46952,-6.81421 c 6.9063,-7.3744 47.8845,-28.1135 17.5812,-23.84732 32.0952,-17.61693 -28.84458,-11.39558 -32.11276,14.89134 30.16796,-21.84584 -17.00899,27.53351 13.07773,12.02784 z m -298.35007,1.63506 c -8.757,-4.84136 -25.87867,-18.91426 -4.24836,-8.56396 -20.68813,-26.87611 -87.46951,-14.63173 -88.50806,-1.35195 15.03715,-2.74998 -21.08794,14.143 10.62944,2.40998 27.21841,-5.70867 56.8303,-5.10098 82.12698,7.50593 z m -97.90604,-14.68669 c 21.90873,-19.14623 55.7464,-5.71432 79.09772,-11.79851 -24.52734,-7.87726 34.77575,1.69697 -3.66088,-10.52904 -19.13627,-7.50433 -70.98588,1.84573 -70.87103,13.50306 26.24056,-8.13233 -34.15535,18.83585 -4.56581,8.82449 z m 379.01723,-2.55861 c 19.0039,-8.12329 49.54438,-39.15446 18.40485,-39.21362 -5.75982,1.97492 -42.40497,34.40497 -18.76491,21.67374 -9.95126,1.79728 -16.05863,35.22066 0.36006,17.53988 z m -378.577,-12.40462 c 13.68428,-16.9917 73.09257,-7.10705 67.97166,-19.08416 -26.74268,-8.32001 -76.84508,12.77019 -74.56863,21.89559 2.19899,-0.93714 4.39798,-1.87429 6.59697,-2.81143 z m 363.88061,-2.19634 c 14.94643,-16.27606 48.23357,-35.51028 26.54479,-40.94625 4.16837,-12.08605 -40.60747,19.44464 -32.5736,35.4475 -2.15135,5.07005 3.41176,19.28794 6.02881,5.49875 z m -271.36636,-1.07904 c -20.50231,-18.8988 -28.6617,0.30979 0,0 z m -92,-9.85152 c 17.37295,-13.54463 74.54678,-3.31337 73.8554,-14.22409 -17.61432,-10.8067 -81.55379,0.082 -71.76975,7.60551 24.96556,-10.9677 -31.82784,19.26391 -2.08565,6.61858 z m 355.57274,-11.1597 c 9.05868,-6.30981 42.40525,-34.74026 12.55922,-24.67939 12.84697,-1.40781 20.78243,-15.95187 1.80879,-5.9147 11.57616,-23.90685 -61.88163,39.23291 -18.04812,12.93986 -15.36182,21.99668 -3.42277,12.29915 -7.26115,20.68116 -2.48979,12.07934 10.33054,2.10991 10.94126,-3.02693 z m -364.58442,1.3049 c 21.89515,-19.36217 80.17501,-4.66023 83.04906,-12.99202 -23.87262,-4.73466 26.13777,-4.61983 -2.87773,-9.52081 -16.22769,-8.48531 -80.52117,3.74023 -67.16386,10.33847 25.98725,-6.33645 -33.56731,13.75806 -13.00747,12.17436 z m 340.4289,-12.16701 c 21.21362,-10.50255 46.92993,-53.88862 12.66739,-40.9503 -9.06383,5.88607 -35.00423,41.32171 -10.47346,16.92 -7.02362,7.72078 -14.57101,29.83937 -0.69941,9.42151 -1.90839,2.96654 -12.87339,26.42576 -1.49452,14.60879 z m -331.27223,-6.77912 c 18.99786,-11.44297 69.12854,-8.90726 72.54704,-6.79096 -7.21335,-17.60657 -79.70462,-10.66004 -72.913,-1.1344 22.40537,-5.70562 -34.41068,18.09677 -1.11224,8.6982 z m 320.39986,-12.17585 c 11.05679,-14.09945 33.4024,-41.83983 13.57206,-39.72055 7.91485,-10.16369 -45.45852,24.5484 -20.12062,39.1714 -2.3739,12.89086 4.6281,4.24839 6.54856,0.54915 z m -321.11861,-3.37836 c 25.2376,-14.90456 81.32458,10.19337 74.76075,-11.69958 -22.99838,-7.90174 -73.90591,-4.57313 -68.09895,5.3155 -4.95527,1.90596 -28.48177,12.1591 -6.6618,6.38408 z m 302.29778,-13.16285 c 31.24109,-12.22523 26.75427,-59.60978 0.25249,-28.58941 -10.74953,9.27112 -22.84148,40.93305 -0.58231,16.01699 -6.62977,7.97106 -11.74534,29.99504 0.32982,12.57242 z m -209.8941,3.61393 c -18.79117,-18.49208 -83.50164,-22.57177 -82.48393,-12.09187 -26.61282,13.5393 37.55267,-2.48137 51.58715,5.25485 10.47358,1.35751 20.84238,3.59312 30.89678,6.83702 z m 193.7006,-14.78441 c 14.9965,-11.49503 23.27288,-35.25429 19.42434,-35.30718 -3.02574,-4.18332 -20.6853,12.70722 -4.63892,-4.99857 -14.39765,-1.83196 -39.05956,51.06072 -17.51365,32.20982 -7.80749,8.26425 -7.47531,24.64678 2.72823,8.09593 z m -195.53052,2.81209 c -26.43202,-12.87912 -25.23687,-0.52104 0,0 z m -82.66667,-7.24073 c 20.19617,5.95295 73.71267,-8.73166 24.74033,-12.43631 -15.36879,-1.31482 -34.52238,9.38709 -8.09802,4.20971 -5.17131,2.55219 -43.64448,12.60329 -16.64231,8.2266 z m 82.05013,0.82236 c -9.71864,-28.68625 -80.56478,-29.8777 -72.88445,-14.56613 24.67941,1.72359 51.38826,0.0677 72.88445,14.56613 z m 178.11088,-3.72706 c 16.39131,-2.41625 34.03996,-61.473156 9.95665,-32.75934 15.31555,-40.256357 -40.83335,57.24001 -6.63769,17.53443 -0.48008,2.97414 -20.19693,31.78964 -3.31896,15.22491 z m -171.3472,2 c -8.31853,-32.6334 -58.25247,-53.799863 -75.00261,-28.48751 27.90942,2.1436 54.41789,8.03887 75.00261,28.48751 z m 5.77645,-6.88698 c 5.10178,-27.51951 -68.23279,-51.436426 -52.43912,-38.08738 20.84882,7.26113 36.6652,23.38839 52.43912,38.08738 z m 147.74308,-4.53132 c 3.64035,-16.24106 3.7624,19.47921 13.2342,-8.35226 10.26272,-8.50537 12.72707,-47.519056 -0.37692,-19.85562 17.03332,-56.987534 -32.39702,54.04172 -12.85728,28.20788 z m -8.92386,-9.73622 c 11.0325,-23.08923 -7.41525,29.61284 5.71934,-0.3106 10.82912,-3.7958 15.01168,-52.841417 5.48828,-24.20155 13.36654,-48.730028 -25.65824,29.35963 -11.20762,24.51215 z m -130.74593,4.81503 c 0.77575,-27.73608 -61.74804,-52.179637 -57.47633,-37.486798 21.71292,0.919311 58.3868,41.699388 57.47633,37.486798 z m 115.85501,1.00616 c 1.68416,-9.37324 15.64477,-28.65626 7.43699,-6.61199 24.69702,-20.92513 -2.47081,-75.220038 -3.98164,-25.31702 -1.46337,10.55883 -4.07927,21.21376 -3.45535,31.92901 z m -6.21267,-0.66667 c 26.40284,-21.54982 -9.31098,-91.932927 -8.56236,-35.325932 -2.64598,12.523122 3.62157,41.866102 8.35872,12.049252 1.77417,2.78254 -11.24875,38.01636 0.20364,23.27668 z m -26.62771,-2.81373 c 12.526,-19.10604 -10.27254,-74.735884 -20.98029,-64.707462 7.05425,24.554016 10.20968,65.443282 17.92957,48.251812 0.75972,2.62585 -4.76335,26.95518 3.05072,16.45565 z m 7.51251,3.03801 c -4.24874,-13.42828 7.97195,-27.10647 5.68586,-4.40163 19.5688,-16.50262 -12.25001,-94.076401 -12.23034,-41.43129 1.11094,15.38881 2.06215,30.97151 6.54448,45.83292 z m -88.44754,-7.70252 c 6.53357,-28.4298 -38.9689,-63.93802 -36.50938,-43.411489 6.91444,2.559726 -30.87675,-8.654994 -0.75509,9.635908 12.60351,10.796121 28.94317,18.894111 37.26447,33.775581 z m 4.47224,-2.53089 c -9.71718,-14.89865 10.84905,25.38688 0,0 z m 13.46952,0.009 c 7.75399,-21.63838 -31.10087,-65.729469 -39.25221,-47.955765 12.41977,7.423781 43.64156,65.845245 39.25221,47.955765 z m 41.88011,-7.50475 c 10.94998,25.96614 12.0098,-48.933271 -13.85794,-50.610545 4.02253,19.789426 9.72239,62.818345 11.55152,56.956325 -0.35324,13.46051 2.25444,-5.67489 2.30642,-6.34578 z m -36.43779,2.97851 c -6.93811,-33.723204 18.36748,28.17864 11.3705,-13.80872 0.5242,-22.445363 -28.76222,-46.422635 -35.23197,-38.922708 -20.17741,-13.135841 23.16837,34.769778 23.86147,52.731428 z m 15.99067,3.35435 c -0.67576,-15.53827 -5.49805,28.18401 0,0 z m 8.45506,-6.16144 c 25.13221,-22.652248 -38.50222,-83.547625 -22.88633,-37.271335 8.22885,5.206968 26.59139,56.075755 22.88633,37.271335 z"
       id="path2013" />
  </g>
</svg>
