<?xml version="1.0" encoding="UTF-8" standalone="no"?>
<!-- Created with Inkscape (http://www.inkscape.org/) -->

<svg
   width="210mm"
   height="297mm"
   viewBox="0 0 210 297"
   version="1.1"
   id="svg1535"
   xml:space="preserve"
   inkscape:version="1.2.1 (9c6d41e, 2022-07-14)"
   sodipodi:docname="cockroach.svg"
   xmlns:inkscape="http://www.inkscape.org/namespaces/inkscape"
   xmlns:sodipodi="http://sodipodi.sourceforge.net/DTD/sodipodi-0.dtd"
   xmlns="http://www.w3.org/2000/svg"
   xmlns:svg="http://www.w3.org/2000/svg"><sodipodi:namedview
     id="namedview1537"
     pagecolor="#ffffff"
     bordercolor="#666666"
     borderopacity="1.0"
     inkscape:showpageshadow="2"
     inkscape:pageopacity="0.0"
     inkscape:pagecheckerboard="0"
     inkscape:deskcolor="#d1d1d1"
     inkscape:document-units="mm"
     showgrid="false"
     inkscape:zoom="0.4204826"
     inkscape:cx="306.79034"
     inkscape:cy="510.12812"
     inkscape:window-width="1728"
     inkscape:window-height="1051"
     inkscape:window-x="0"
     inkscape:window-y="38"
     inkscape:window-maximized="1"
     inkscape:current-layer="layer1" /><defs
     id="defs1532" /><g
     inkscape:label="Layer 1"
     inkscape:groupmode="layer"
     id="layer1"><path
       style="fill:#ca6b3b;stroke:none;stroke-width:1"
       d="m 88.907421,138.50035 c 2.880077,3.6358 11.598269,2.82222 15.874989,2.82222 10.65707,0 21.71771,-0.56755 32.30598,0.59232 3.57858,0.39204 7.97842,-0.18578 11.07052,2.10604 3.45616,2.5617 1.8736,9.56864 -1.78153,11.43805 -1.37724,0.70435 -3.70134,-0.15434 -5.25886,0.04 -2.05281,0.25622 -3.64595,1.80033 -5.64444,2.07853 -3.74509,0.52137 -8.03945,-0.9114 -11.25079,1.87551 -2.42464,2.10428 -2.07645,6.20447 -1.40335,9.0334 1.55893,6.54861 6.44208,14.51222 14.06525,15.09042 6.64704,0.50447 5.24016,-6.69361 8.87024,-9.45797 2.8187,-2.14666 6.61565,-2.24332 7.35754,-6.33801 3.33833,0 13.12474,-0.54963 14.18449,3.88232 0.77717,3.24873 -5.44866,7.19596 -7.48136,8.96726 -7.10636,6.19195 -12.67213,15.33525 -16.57103,23.83931 -1.30563,2.84727 -6.58813,12.74551 -2.8321,14.81667 0.25082,-12.15073 9.70068,-25.48926 17.38665,-34.21945 3.15066,-3.57858 10.24608,-7.31026 11.06276,-12.34722 0.90064,-5.55307 -8.22043,-6.22653 -11.86886,-6.35388 -1.36137,-0.0473 -3.30905,0.0892 -4.20722,-1.12032 -1.10984,-1.49471 -4.50568,-6.67755 -4.46123,-8.4008 0.11924,-4.61525 6.31225,-8.0905 1.89018,-13.03753 -3.31364,-3.70713 -10.50748,-3.53565 -15.09395,-3.54302 -11.11814,-0.0179 -22.39786,0.12012 -33.51388,-0.36668 -3.811764,-0.1669 -9.132358,-2.09617 -12.699999,-1.39721 m 18.697219,9.525 1.76389,2.46944 c -4.02202,1.04059 -4.7371,0.34273 -7.76111,-2.11666 l 1.76388,3.175 c -2.96756,0.69836 -4.972041,-0.94728 -7.761102,-1.57741 -3.158066,-0.71357 -7.972424,-0.0228 -10.583332,1.93018 l 7.79286,-0.0125 9.846024,1.42364 -0.35278,1.76389 c 2.40065,-1.51659 4.25697,-1.76389 7.05556,-1.76389 l -0.35278,2.11667 h 0.35278 c 1.7981,-2.84092 4.29648,-2.82187 7.40833,-2.82223 -0.33091,1.23056 -1.15711,2.26064 -1.36031,3.52778 -0.34255,2.13124 0.29245,6.23048 -1.31692,7.86617 -1.79635,1.82604 -6.54544,2.32699 -8.96444,3.07876 -1.41746,0.44061 -5.162897,2.51283 -6.473817,1.5053 -2.618316,-2.01189 -0.766939,-8.94655 -3.456164,-10.1207 -2.596444,-1.13358 -5.52838,0.7631 -8.061677,0.96852 -1.423811,0.11543 -2.6289,-1.00863 -3.880555,-1.53416 l 1.763889,2.46944 -6.35,1.95309 -3.527778,-1.60031 2.469445,2.11667 v 0.35278 l -9.172222,0.10724 -13.758333,3.42053 v 0.35278 c 4.263955,0.79163 7.211624,-0.60078 11.288889,-1.25589 3.593641,-0.57754 8.006291,-0.69861 11.641666,-0.508 l -0.352778,1.41111 c 2.70898,-2.148 5.400675,-3.17302 8.819444,-3.88055 l -0.352778,2.11666 h 0.352778 c 0.673805,-1.30785 4.832702,-6.39459 6.696427,-3.83617 0.486481,0.66788 -0.357364,2.62347 -0.313266,3.48339 0.08749,1.69686 1.379361,4.80413 0.500238,6.35388 -1.245658,2.19569 -7.435496,3.41348 -9.705621,4.49227 -0.81527,0.38735 -2.064808,1.20545 -3.010958,0.92358 -2.862086,-0.85267 -2.373136,-6.84848 -5.471231,-7.03757 -2.756605,-0.16863 -4.994027,2.57634 -7.39281,3.47275 -1.216343,0.45473 -2.61994,-0.0342 -3.880556,-0.091 v 0.35278 l 2.469445,0.70555 c -3.140957,2.89278 -4.957304,5.15444 -9.172222,3.52778 l 2.822222,1.76389 v 0.70556 c -2.178156,0.90275 -4.156216,2.25777 -6.35,3.17076 -5.552298,2.31105 -13.085973,3.94617 -15.522221,10.23479 l 5.997222,-3.76661 8.819444,-3.77331 7.76111,-4.45452 v 1.76389 H 60.6852 c 1.157852,-3.29601 4.077476,-5.00627 7.055555,-6.70278 v 1.76389 h 0.705556 c 0.03739,-3.16336 2.469762,-4.94806 5.291666,-5.99723 l 1.763889,7.40834 c -9.204748,3.34962 -19.391417,11.29383 -23.722117,20.10833 -1.433618,2.91783 -3.230245,9.63648 -0.641597,12.48728 1.053465,1.15993 4.240812,0.5655 5.666493,0.5655 5.846515,0 11.695817,-0.75777 17.28611,-2.53788 7.267927,-2.31493 14.145683,-5.8607 19.342452,-11.57464 4.173008,-4.58788 7.042853,-10.40095 10.522293,-15.52081 2.51601,-3.70241 7.57802,-13.40768 12.82136,-12.7 -2.33751,4.48451 -8.48854,6.63786 -9.525,11.99444 3.7398,-1.05092 13.61263,-3.64596 15.875,0.70556 -5.54461,1.68416 -12.33135,-0.90841 -17.6336,2.46768 -2.52659,1.60866 -3.64243,4.92372 -5.09411,7.41009 -2.082441,3.56694 -4.660188,6.6421 -7.611174,9.51971 -10.477852,10.21786 -25.86309,12.70529 -39.863886,12.70529 0.808178,3.10798 3.958413,5.53579 6.702777,6.96313 8.340724,4.33776 18.897952,0.92781 26.81111,-2.78871 2.553405,-1.19944 5.732638,-3.83646 8.465255,-4.33599 1.896533,-0.34643 4.163835,3.7525 6.351408,4.39491 -2.197803,2.8388 -4.955467,3.23567 -8.113886,2.11666 l 1.058333,2.11667 -8.819444,2.11667 1.058334,1.05833 c -6.306256,5.32624 -14.39933,9.35743 -21.519444,13.40556 v 0.35277 c 3.292793,-0.0681 7.158567,-1.00894 9.877778,-2.92946 4.111624,-2.90407 8.211255,-8.2543 13.405554,-9.06498 l -0.352777,3.52778 1.271058,-3.44841 6.490052,-2.90159 v 2.82222 c 0.705909,-1.15535 0.775759,-2.68746 1.862314,-3.59692 1.914881,-1.60338 5.872338,-2.21368 6.728878,-4.88351 0.83361,-2.59962 -3.28718,-5.12198 -3.55212,-7.73359 -0.12594,-1.24248 1.13489,-1.93428 2.01683,-2.54106 2.13536,-1.46897 6.43643,-6.04167 9.02229,-6.13657 1.37301,-0.0504 3.03671,1.88031 4.03014,2.66559 1.78858,1.41393 3.09562,1.78435 5.29166,2.11773 -1.62348,3.12737 -4.01567,4.49121 -7.40833,4.23333 v 0.70555 l 1.76389,0.35278 v 0.70556 c -2.94958,1.37548 -4.23969,4.54448 -7.76111,4.58611 v 0.70555 h 1.41111 c -1.78929,3.59657 -4.22734,7.53287 -6.85765,10.57805 -2.374897,2.74955 -5.261674,4.61151 -5.842346,8.47195 3.523539,-2.48002 7.779806,-6.53838 10.015356,-10.23055 1.61466,-2.6663 1.68628,-5.94254 4.8013,-7.40833 l 0.35278,3.175 h 0.70556 c -0.18309,-4.2665 1.3462,-6.09988 5.29166,-8.11389 l 1.05834,2.46944 c -0.16369,-1.2961 -0.55916,-2.62361 0.18027,-3.81564 1.40299,-2.26131 5.30084,-4.03931 5.03978,-7.1053 -0.127,-1.49084 -1.7332,-2.11102 -2.75061,-2.95346 -1.88489,-1.56068 -3.71228,-3.40607 -4.93889,-5.52838 3.43747,-1.66546 6.30626,-5.12409 9.17222,-7.61153 0.98531,-0.85513 2.36326,-2.68146 3.73098,-2.83774 2.25919,-0.25859 5.0165,2.47508 7.20514,2.98802 0.72284,0.16969 2.33715,-0.30727 2.71427,0.55069 1.09819,2.49908 -3.7017,5.10222 -5.5365,5.14667 v 0.35278 h 1.76389 c -0.95991,2.6222 -2.28811,4.65808 -4.93889,5.64445 v 0.35277 h 1.76389 l -3.89078,9.87778 -3.87033,6.35 c 3.0607,-0.83538 6.32637,-5.13574 7.09013,-8.11389 0.69356,-2.70439 0.41592,-5.53437 2.78765,-7.40833 l 1.05833,2.82222 h 0.35278 c -0.34184,-3.41383 -0.67416,-5.09305 2.46944,-7.40833 l 1.41112,2.11667 c -0.41064,-1.26507 -1.01706,-2.55306 -0.52564,-3.88056 0.8389,-2.26589 4.27178,-5.37034 3.13372,-8.03451 -0.66322,-1.55258 -3.69958,-2.18934 -5.07753,-2.98309 -1.68381,-0.97049 -2.8448,-2.39536 -4.39385,-3.45193 -2.85291,-1.94593 -5.72593,-2.32058 -8.07014,-5.28638 -4.45276,-5.6328 -4.11974,-12.97693 -4.76215,-19.75519 -0.1785,-1.88352 1.2058,-5.41871 0.066,-6.95731 -1.73743,-2.3459 -6.17608,-0.65014 -8.58731,-1.26873 -1.39348,-0.35747 -2.25566,-1.73595 -3.53307,-2.3573 m 22.225,11.7481 c 5.86528,-0.83869 11.09027,5.07206 11.88825,10.4769 0.46003,3.11608 -0.81033,7.86906 -4.47957,8.54216 -2.09938,0.38488 -3.11079,-2.07751 -3.78072,-3.60328 -0.72249,-1.645 -1.28058,-3.37396 -2.17417,-4.93888 -1.72614,-3.02402 -8.60883,-9.45374 -1.45379,-10.4769 z"
       id="path1732" /></g></svg>
